<?xml version="1.0" encoding="utf-8"?>
<!-- Generator: Adobe Illustrator 18.0.0, SVG Export Plug-In . SVG Version: 6.00 Build 0)  -->
<!DOCTYPE svg PUBLIC "-//W3C//DTD SVG 1.1//EN" "http://www.w3.org/Graphics/SVG/1.1/DTD/svg11.dtd">
<svg version="1.1" id="Layer_1" xmlns="http://www.w3.org/2000/svg" xmlns:xlink="http://www.w3.org/1999/xlink" x="0px" y="0px"
	 viewBox="0 0 195 61.9" enable-background="new 0 0 195 61.9" xml:space="preserve">
<g>
	<path fill="#FFFFFF" d="M33.2,50.5l-7.3,0V35.1c0-2.6,0.5-4.8,1.4-6.7c0.9-1.9,2.5-3.5,4.5-4.9c1.3-0.9,2.5-1.5,3.6-1.8
		c1.1-0.4,2.3-0.6,3.7-0.6c0.3,0,0.7,0,1.2,0.1c0.5,0,1,0.1,1.6,0.2v6.9c-0.6-0.2-1.3-0.3-2-0.3c-1.3,0-2.6,0.5-3.9,1.4
		c-0.9,0.6-1.6,1.4-2.1,2.2c-0.5,0.8-0.7,1.8-0.7,2.9V50.5z"/>
	<path fill="#FFFFFF" d="M44.6,21.1h6.6v29.2h-6.6V21.1z"/>
	<path fill="#FFFFFF" d="M77.6,12H84v24c0,4-1.5,7.3-4.5,10.1c-3,2.7-6.5,4.1-10.6,4.1c-4,0-7.5-1.4-10.3-4.3
		c-2.9-2.9-4.3-6.3-4.3-10.4c0-3.7,1.1-6.8,3.4-9.4c2.3-2.6,5.3-4.2,9-4.8c1-0.2,2-0.2,2.8-0.2c1.9,0,4,0.5,6.2,1.6v7.8
		c-0.7-0.9-1.7-1.7-2.9-2.2c-1.2-0.5-2.5-0.8-3.9-0.8c-2.3,0-4.1,0.6-5.6,1.9c-1.7,1.5-2.6,3.6-2.6,6.2c0,2.3,0.8,4.2,2.4,5.9
		c1.6,1.6,3.6,2.4,5.9,2.4c2.3,0,4.3-0.7,6-2.2c1.7-1.4,2.5-3.2,2.5-5.4L77.6,12L77.6,12z"/>
	<path fill="#FFFFFF" d="M86.9,21h6.6v29.3h-6.6V21z"/>
	<path fill="#FFFFFF" d="M97.6,21.2h23.1l-11.7,22.2h11.2v7.1H96.8l12.2-23H97.6V21.2z"/>
	<path fill="#FFFFFF" d="M145.5,33.5c-0.6-2-1.6-3.5-3.1-4.6c-1.5-1.1-3.4-1.7-5.5-1.7c-2.3,0-4.4,0.8-6.1,2.5
		c-1.7,1.7-2.6,3.6-2.6,5.9c0,0.4,0,0.7,0,0.9c0.3,2.4,1.3,4.4,3.1,5.8c1.6,1.3,3.5,1.9,5.7,1.9c1.2,0,2.4-0.2,3.5-0.7
		c1.1-0.4,2-1.1,2.8-1.9l4.3,4.4c-1.5,1.5-3.1,2.7-4.8,3.3c-1.7,0.7-3.6,1-5.8,1c-4.1,0-7.7-1.4-10.6-4.2c-3-2.8-4.4-6.3-4.4-10.3
		c0-4.1,1.4-7.6,4.3-10.5c2.9-2.9,6.3-4.3,10.4-4.3c4.1,0,7.7,1.5,10.8,4.6c3.1,3,4.6,6.6,4.6,10.6c0,0.4,0,0.9,0,1.3
		c-0.1,0.4-0.1,0.6-0.1,0.8h-21.2c-0.4,0-0.7-0.2-0.9-0.6c-0.1-0.4-0.2-0.9-0.2-1.5c0-0.3,0-0.5,0-0.6c0-0.3,0-0.6,0-0.7
		c0-0.5,0.1-0.8,0.2-1.1c0.1-0.2,0.3-0.3,0.7-0.3L145.5,33.5L145.5,33.5L145.5,33.5z"/>
	<path fill="#FFFFFF" d="M155.5,50.4V34.7c0-3.8,1.4-7,4.1-9.6c2.7-2.7,6-4,9.8-4c3.7,0,6.9,1.3,9.6,4c2.6,2.7,4,5.9,4,9.6v15.6h-7
		V34.5c0-1.8-0.7-3.3-2-4.5c-1.4-1.2-3-1.8-4.8-1.8c-1.8,0-3.3,0.6-4.6,1.8c-1.3,1.2-1.9,2.7-1.9,4.4v15.9L155.5,50.4L155.5,50.4z"
		/>
	<path fill="#010200" d="M19.9,23.4"/>
	<path fill="#FFFFFF" d="M18.9,24.5c-1.2,0-2.4-0.4-3.3-1.1v27h6.6v-27C21.3,24.1,20.2,24.5,18.9,24.5z"/>
	<g>
		<g>
			<ellipse fill="#AF40F9" cx="19" cy="14.9" rx="6.4" ry="6.5"/>
			<ellipse fill="#8C03F8" cx="19" cy="14.9" rx="3.3" ry="3.3"/>
		</g>
	</g>
</g>
</svg>
